<svg width="40" height="40" viewBox="0 0 40 40" fill="none" xmlns="http://www.w3.org/2000/svg">
<g clip-path="url(#clip0_62_16)">
<path d="M13.3332 26.3933C13.3195 27.359 12.9694 28.2897 12.3432 29.025C10.9353 30.5604 8.9873 31.4905 6.9082 31.62C2.75153 32.025 0.301531 29.7583 0.0281975 27.31C-0.0375921 26.7201 0.016165 26.1229 0.186259 25.5542C0.356354 24.9855 0.639297 24.4569 1.0182 24C1.6328 23.3179 2.37627 22.7641 3.20578 22.3705C4.03529 21.9769 4.93447 21.7513 5.85153 21.7067C9.7232 21.3333 13.3332 23.3967 13.3332 26.3933ZM23.3332 35.245C23.3129 36.1319 22.9595 36.9786 22.3432 37.6167C20.8742 39.0275 18.9428 39.8567 16.9082 39.95C12.7515 40.3167 10.3015 38.2733 10.0282 36.065C9.9667 35.5267 10.0234 34.9814 10.1944 34.4673C10.3654 33.9532 10.6465 33.4826 11.0182 33.0883C12.3151 31.8204 14.0389 31.0827 15.8515 31.02C19.7232 30.685 23.3332 32.735 23.3332 35.245ZM13.3332 13.6067C13.3332 16.6233 9.7232 18.6633 5.84653 18.285C4.92947 18.2404 4.03029 18.0147 3.20078 17.6212C2.37127 17.2276 1.6278 16.6738 1.0132 15.9917C0.636487 15.5352 0.355206 15.0078 0.186013 14.4407C0.0168199 13.8736 -0.0368449 13.2782 0.0281969 12.69C0.30153 10.2417 2.75153 7.97501 6.9082 8.38C8.98776 8.50961 10.9363 9.43967 12.3449 10.975C12.9699 11.7108 13.3194 12.6413 13.3332 13.6067ZM23.3332 4.91167C23.3332 8.05501 19.7232 9.62334 15.8465 9.27C14.0223 9.19992 12.2936 8.4363 11.0132 7.13501C10.6388 6.72214 10.3568 6.23412 10.186 5.70355C10.0153 5.17298 9.9598 4.61208 10.0232 4.05834C10.2965 1.77834 12.7465 -0.333329 16.9032 0.0433342C18.9522 0.1492 20.8892 1.01082 22.3399 2.46167C22.9601 3.12899 23.3135 4.00086 23.3332 4.91167ZM39.9999 13.3333C40.0279 14.7578 39.6801 16.1644 38.9915 17.4117C38.5711 18.2097 38.3515 19.098 38.3515 20C38.3515 20.902 38.5711 21.7903 38.9915 22.5883C41.8032 27.61 38.7115 33.4633 31.6665 33.3333C23.9399 33.3333 16.6665 25.8217 16.6665 20C16.6665 14.1783 23.9399 6.66667 31.6665 6.66667C36.5732 6.66667 39.9999 9.40834 39.9999 13.3333Z" fill="#F2B930"/>
</g>
<defs>
<clipPath id="clip0_62_16">
<rect width="40" height="40" fill="white" transform="translate(0 40) rotate(-90)"/>
</clipPath>
</defs>
</svg>
