<svg width="40" height="40" viewBox="0 0 40 40" fill="none" xmlns="http://www.w3.org/2000/svg">
<g clip-path="url(#clip0_62_19)">
<path d="M26.6668 26.3933C26.6805 27.359 27.0306 28.2897 27.6568 29.025C29.0647 30.5604 31.0127 31.4905 33.0918 31.62C37.2485 32.025 39.6985 29.7583 39.9718 27.31C40.0376 26.7201 39.9838 26.1229 39.8137 25.5542C39.6436 24.9855 39.3607 24.4569 38.9818 24C38.3672 23.3179 37.6237 22.7641 36.7942 22.3705C35.9647 21.9769 35.0655 21.7513 34.1485 21.7067C30.2768 21.3333 26.6668 23.3967 26.6668 26.3933ZM16.6668 35.245C16.6871 36.1319 17.0405 36.9786 17.6568 37.6167C19.1258 39.0275 21.0572 39.8567 23.0918 39.95C27.2485 40.3167 29.6985 38.2733 29.9718 36.065C30.0333 35.5267 29.9766 34.9814 29.8056 34.4673C29.6346 33.9532 29.3535 33.4826 28.9818 33.0883C27.6849 31.8204 25.9611 31.0827 24.1485 31.02C20.2768 30.685 16.6668 32.735 16.6668 35.245ZM26.6668 13.6067C26.6668 16.6233 30.2768 18.6633 34.1535 18.285C35.0705 18.2404 35.9697 18.0147 36.7992 17.6212C37.6287 17.2276 38.3722 16.6738 38.9868 15.9917C39.3635 15.5352 39.6448 15.0078 39.814 14.4407C39.9832 13.8736 40.0368 13.2782 39.9718 12.69C39.6985 10.2417 37.2485 7.97501 33.0918 8.38C31.0122 8.50961 29.0637 9.43967 27.6551 10.975C27.0301 11.7108 26.6806 12.6413 26.6668 13.6067ZM16.6668 4.91167C16.6668 8.05501 20.2768 9.62334 24.1535 9.27C25.9777 9.19992 27.7064 8.4363 28.9868 7.13501C29.3612 6.72214 29.6432 6.23412 29.814 5.70355C29.9847 5.17298 30.0402 4.61208 29.9768 4.05834C29.7035 1.77834 27.2535 -0.333329 23.0968 0.0433342C21.0478 0.1492 19.1108 1.01082 17.6601 2.46167C17.0399 3.12899 16.6865 4.00086 16.6668 4.91167ZM0.000130865 13.3333C-0.0278958 14.7578 0.31989 16.1644 1.00846 17.4117C1.42885 18.2097 1.64855 19.098 1.64855 20C1.64855 20.902 1.42885 21.7903 1.00846 22.5883C-1.80321 27.61 1.28846 33.4633 8.33346 33.3333C16.0601 33.3333 23.3335 25.8217 23.3335 20C23.3335 14.1783 16.0601 6.66667 8.33347 6.66667C3.4268 6.66667 0.000131037 9.40834 0.000130865 13.3333Z" fill="#F2B930"/>
</g>
<defs>
<clipPath id="clip0_62_19">
<rect width="40" height="40" fill="white" transform="matrix(4.37114e-08 -1 -1 -4.37114e-08 40 40)"/>
</clipPath>
</defs>
</svg>
