<svg width="15" height="16" viewBox="0 0 15 16" fill="none" xmlns="http://www.w3.org/2000/svg">
<g clip-path="url(#clip0_62_129)">
<path fill-rule="evenodd" clip-rule="evenodd" d="M1.76714 0.979139C1.93118 0.815347 2.12815 0.688287 2.34501 0.60638C2.56187 0.524472 2.79366 0.489587 3.02502 0.504036C3.25638 0.518485 3.48203 0.581938 3.68701 0.69019C3.89199 0.798443 4.07163 0.949023 4.21402 1.13195L5.89683 3.29383C6.20527 3.69039 6.31402 4.20695 6.19214 4.69445L5.67933 6.74758C5.65281 6.85392 5.65425 6.96531 5.68349 7.07093C5.71273 7.17655 5.76878 7.27282 5.8462 7.35039L8.14964 9.65383C8.2273 9.73141 8.32373 9.78755 8.42953 9.8168C8.53534 9.84604 8.64691 9.84739 8.75339 9.8207L10.8056 9.30789C11.0462 9.24774 11.2973 9.24307 11.5399 9.29423C11.7826 9.34539 12.0104 9.45104 12.2062 9.6032L14.3681 11.2851C15.1453 11.8898 15.2165 13.0382 14.5209 13.7329L13.5515 14.7023C12.8578 15.396 11.8209 15.7007 10.8543 15.3604C8.38044 14.4899 6.13427 13.0737 4.28245 11.2166C2.42554 9.36509 1.00927 7.11926 0.138703 4.6457C-0.200672 3.68008 0.104016 2.64226 0.797766 1.94851L1.76714 0.979139Z" fill="#016EA7"/>
</g>
<defs>
<clipPath id="clip0_62_129">
<rect width="15" height="15" fill="white" transform="translate(0 0.5)"/>
</clipPath>
</defs>
</svg>
