<svg width="12" height="12" viewBox="0 0 12 12" fill="none" xmlns="http://www.w3.org/2000/svg">
<g clip-path="url(#clip0_62_38)">
<path fill-rule="evenodd" clip-rule="evenodd" d="M1.41361 0.383452C1.54485 0.252418 1.70243 0.15077 1.87591 0.0852442C2.0494 0.019718 2.23483 -0.00819027 2.41992 0.00336889C2.60501 0.014928 2.78553 0.0656907 2.94951 0.152293C3.1135 0.238895 3.25721 0.359359 3.37111 0.505702L4.71737 2.2352C4.96412 2.55245 5.05112 2.9657 4.95362 3.3557L4.54337 4.9982C4.52215 5.08327 4.5233 5.17239 4.54669 5.25688C4.57008 5.34138 4.61493 5.4184 4.67687 5.48045L6.51962 7.3232C6.58174 7.38527 6.65889 7.43018 6.74353 7.45358C6.82817 7.47697 6.91743 7.47805 7.00261 7.4567L8.64437 7.04645C8.83683 6.99833 9.03771 6.99459 9.23182 7.03552C9.42594 7.07645 9.60822 7.16097 9.76487 7.2827L11.4944 8.6282C12.1161 9.11195 12.1731 10.0307 11.6166 10.5865L10.8411 11.362C10.2861 11.917 9.45662 12.1607 8.68336 11.8885C6.70425 11.1921 4.90732 10.0591 3.42586 8.57345C1.94033 7.09221 0.807321 5.29555 0.110865 3.3167C-0.160635 2.5442 0.0831149 1.71395 0.638115 1.15895L1.41361 0.383452Z" fill="white"/>
</g>
<defs>
<clipPath id="clip0_62_38">
<rect width="12" height="12" fill="white"/>
</clipPath>
</defs>
</svg>
